<svg xmlns="http://www.w3.org/2000/svg" viewBox="0 0 32 32" width="32" height="32" fill="none">
  <!-- Stylized rose: layered petals spiraling inward -->
  <circle cx="16" cy="16" r="15" fill="#f472b6" opacity="0.12"/>
  <!-- Outer petals -->
  <path d="M16 3c2.5 3.5 7 6 7 11s-3.1 7-7 7-7-2-7-7 4.5-7.5 7-11z" fill="#f472b6" opacity="0.35"/>
  <path d="M29 16c-3.5 2.5-6 7-11 7s-7-3.1-7-7 2-7 7-7 7.5 4.5 11 7z" fill="#f472b6" opacity="0.4"/>
  <path d="M16 29c-2.5-3.5-7-6-7-11s3.1-7 7-7 7 2 7 7-4.5 7.5-7 11z" fill="#f472b6" opacity="0.5"/>
  <path d="M3 16c3.5-2.5 6-7 11-7s7 3.1 7 7-2 7-7 7-7.5-4.5-11-7z" fill="#f472b6" opacity="0.45"/>
  <!-- Inner bloom -->
  <ellipse cx="16" cy="16" rx="4.5" ry="5" fill="#f472b6" opacity="0.7"/>
  <ellipse cx="16" cy="16" rx="5" ry="4.5" fill="#f472b6" opacity="0.6"/>
  <!-- Center -->
  <circle cx="16" cy="16" r="2.5" fill="#f472b6"/>
</svg>
